<svg xmlns="http://www.w3.org/2000/svg" viewBox="0 0 800 800" preserveAspectRatio="xMidYMid slice">
  
  <defs>
    <radialGradient id="ph4-court" cx="50%" cy="55%" r="70%">
      <stop offset="0%" stop-color="#A24043"></stop>
      <stop offset="60%" stop-color="#5C0F12"></stop>
      <stop offset="100%" stop-color="#2A0808"></stop>
    </radialGradient>
  </defs>
  <rect width="800" height="800" fill="url(#ph4-court)"></rect>
  
  <ellipse cx="400" cy="600" rx="320" ry="40" stroke="#E6C895" stroke-width="3" fill="none" opacity="0.35"></ellipse>
  <ellipse cx="400" cy="600" rx="180" ry="20" stroke="#E6C895" stroke-width="2" fill="none" opacity="0.25"></ellipse>
  
  <g fill="#1A0A05" opacity="0.92">
    <ellipse cx="380" cy="280" rx="38" ry="48"></ellipse>
    <path d="M 320 330 Q 320 320 380 320 Q 440 320 440 330 L 460 510 Q 460 530 440 535 L 410 540 L 420 600 Q 420 620 405 620 L 380 620 L 360 540 L 340 540 Q 320 540 320 510 Z"></path>
    
    <path d="M 320 360 Q 280 340 250 290 Q 245 280 252 275 Q 260 270 270 280 L 340 350 Z"></path>
    <path d="M 440 360 Q 480 340 510 290 Q 515 280 508 275 Q 500 270 490 280 L 420 350 Z"></path>
  </g>
  
  <circle cx="260" cy="180" r="34" fill="#B08A4A"></circle>
  <circle cx="260" cy="180" r="34" stroke="#3A0A0C" stroke-width="2" fill="none"></circle>
  <path d="M 226 180 L 294 180 M 260 146 L 260 214" stroke="#3A0A0C" stroke-width="2"></path>
  <text x="30" y="775" font-family="&#39;Italiana&#39;, serif" font-size="13" fill="#E6C895" opacity="0.7" letter-spacing="3">PLACEHOLDER · BASKETBALL</text>
</svg>